<?xml version="1.0" encoding="UTF-8" standalone="no"?>
<svg
   xmlns:dc="http://purl.org/dc/elements/1.1/"
   xmlns:cc="http://creativecommons.org/ns#"
   xmlns:rdf="http://www.w3.org/1999/02/22-rdf-syntax-ns#"
   xmlns:svg="http://www.w3.org/2000/svg"
   xmlns="http://www.w3.org/2000/svg"
   xmlns:sodipodi="http://sodipodi.sourceforge.net/DTD/sodipodi-0.dtd"
   xmlns:inkscape="http://www.inkscape.org/namespaces/inkscape"
   inkscape:export-ydpi="96"
   inkscape:export-xdpi="96"
   inkscape:export-filename="/home/jakub/Pulpit/rysunek.png"
   width="512"
   height="512"
   viewBox="0 0 135.46666 135.46667"
   version="1.1"
   id="svg8"
   inkscape:version="1.0 (1.0+r73+1)"
   sodipodi:docname="rysunek.svg">
  <defs
     id="defs2" />
  <sodipodi:namedview
     id="base"
     pagecolor="#ffffff"
     bordercolor="#666666"
     borderopacity="1.0"
     inkscape:pageopacity="0.0"
     inkscape:pageshadow="2"
     inkscape:zoom="0.65206935"
     inkscape:cx="333.70275"
     inkscape:cy="567.69974"
     inkscape:document-units="px"
     inkscape:current-layer="layer1"
     inkscape:document-rotation="0"
     showgrid="false"
     units="px"
     inkscape:window-width="1920"
     inkscape:window-height="1010"
     inkscape:window-x="0"
     inkscape:window-y="0"
     inkscape:window-maximized="1" />
  <metadata
     id="metadata5">
    <rdf:RDF>
      <cc:Work
         rdf:about="">
        <dc:format>image/svg+xml</dc:format>
        <dc:type
           rdf:resource="http://purl.org/dc/dcmitype/StillImage" />
        <dc:title />
      </cc:Work>
    </rdf:RDF>
  </metadata>
  <g
     inkscape:label="Warstwa 1"
     inkscape:groupmode="layer"
     id="layer1">
    <g
       transform="translate(0.14004313,-138.37386)"
       id="g935">
      <rect
         ry="0"
         rx="0"
         y="138.37386"
         x="-0.13997816"
         height="135.46666"
         width="135.46666"
         id="rect867"
         style="fill:#a1887f;fill-opacity:1;fill-rule:evenodd;stroke:none;stroke-width:0.564358;stroke-linecap:round;stroke-linejoin:bevel;paint-order:stroke markers fill" />
      <path
         id="path870"
         style="fill:#62534d;fill-opacity:1;stroke:none;stroke-width:0.999999px;stroke-linecap:butt;stroke-linejoin:miter;stroke-opacity:1"
         d="M 167.93555,522.98828 138.25781,682.88477 H -0.52929688 v 27.41406 L 140.35547,851.18164 136.85938,1034.9883 H 511.4707 V 682.88477 H 328.03516 L 168.13672,522.98828 Z"
         transform="scale(0.26458333)" />
      <path
         id="path896"
         style="fill:#3c322f;fill-opacity:1;stroke:none;stroke-width:0.999999px;stroke-linecap:butt;stroke-linejoin:miter;stroke-opacity:1"
         d="m 279.86719,741.59375 -58.44727,10.23047 1.91211,41.18164 5.31641,1.85742 -2.70899,18.99805 -22.71484,4.77734 52.44141,52.44141 -26.73633,10.0293 -33.27735,0.25 153.62891,153.62892 H 511.4707 V 834.12109 l -85.92382,-85.92382 -70.96094,7.5664 -24.41797,35.71485 z"
         transform="scale(0.26458333)" />
      <path
         id="rect869"
         style="fill:#ffc107;fill-opacity:1;fill-rule:evenodd;stroke:none;stroke-width:2.52629;stroke-linecap:round;stroke-linejoin:bevel;paint-order:stroke markers fill"
         d="m 119.74805,522.98828 v 512.00002 h 48.29687 V 522.98828 Z"
         transform="scale(0.26458333)" />
      <path
         id="rect871"
         style="fill:#ffc107;fill-opacity:1;fill-rule:evenodd;stroke:none;stroke-width:2.52629;stroke-linecap:round;stroke-linejoin:bevel;paint-order:stroke markers fill"
         d="m -0.52929688,661.98633 v 48.29492 H 511.4707 v -48.29492 z"
         transform="scale(0.26458333)" />
      <g
         id="g881">
        <path
           style="fill:#ffffff;fill-opacity:1;stroke:none;stroke-width:0.264583px;stroke-linecap:butt;stroke-linejoin:miter;stroke-opacity:1"
           d="m 77.74556,201.2249 c 0.65065,-2.09818 -1.224349,-3.83441 -4.136358,-5.42202 -2.933175,-1.81565 -6.32648,-1.99433 -9.721304,-2.16761 -7.290628,0.23058 -12.720423,4.05771 -14.081115,10.95122 -0.853146,3.31835 0.05488,6.32966 1.376032,9.26895 1.8924,2.85808 4.677036,4.44947 8.724414,5.57362 3.342131,0.63175 7.023386,0.68581 9.578561,3.26364 1.458992,4.01191 -2.565761,6.17302 -4.845317,5.98078 -3.179937,-0.0324 -5.276392,-3.05063 -7.665632,-5.26202 -3.300351,-2.19496 -5.10633,0.349 -6.664884,1.80017 -2.713344,2.29997 -0.990043,4.82837 0.900518,7.36537 3.09981,3.66846 7.654053,4.79511 12.290557,5.778 12.764274,0.80747 19.12286,-9.30365 16.31648,-18.60611 -2.210541,-8.37197 -12.428135,-8.7861 -16.548714,-9.83202 -4.044383,-1.0764 -3.29337,-4.52384 -1.88252,-5.84961 1.388333,-0.84514 4.580192,-1.68605 7.486801,0.90021 4.213754,4.25412 8.047963,-0.97534 8.872481,-3.74257 z"
           id="path837"
           sodipodi:nodetypes="ccccccccccccccccc" />
        <path
           id="path839"
           style="fill:#ffffff;fill-opacity:1;stroke:none;stroke-width:0.264583px;stroke-linecap:butt;stroke-linejoin:miter;stroke-opacity:1"
           d="m 100.14123,194.39241 c -0.420046,-0.003 -0.848246,0.002 -1.285194,0.015 l -11.2236,0.15039 c -1.450787,0.10376 -2.994522,0.039 -3.104203,2.56366 v 36.27738 c 0.315185,6.20548 10.063483,4.8087 10.097573,0 v -8.11009 h 8.918324 c 16.16978,0.10362 23.06003,-30.7183 -3.4029,-30.89631 z m 0.88574,10.23762 c 10.6114,1.01788 5.28328,11.07333 1.93218,10.5854 h -8.316804 v -10.57817 z" />
      </g>
    </g>
  </g>
</svg>
